<svg width="330" height="205" viewBox="0 0 330 205" fill="none" xmlns="http://www.w3.org/2000/svg">
<path d="M327.625 125.255H2.37503C1.06949 125.255 0 126.342 0 127.664V183.065C0 184.393 1.06949 185.474 2.37503 185.474H106.388C104.172 185.474 102.372 184.041 102.372 182.266V179.052C102.372 177.28 104.172 175.839 106.388 175.839H110.403C112.619 175.839 114.418 177.28 114.418 179.052V182.266C114.418 184.041 112.619 185.474 110.403 185.474H219.597C217.383 185.474 215.584 184.041 215.584 182.266V179.052C215.584 177.28 217.383 175.839 219.597 175.839H223.615C225.831 175.839 227.63 177.28 227.63 179.052V182.266C227.63 184.041 225.831 185.474 223.615 185.474H327.625C328.931 185.474 330 184.393 330 183.065V127.664C330 126.342 328.931 125.255 327.625 125.255Z" fill="#E1CC9D"/>
<path d="M236.058 113.211C225.419 113.211 216.788 104.583 216.788 93.9411C216.788 83.2992 225.419 74.671 236.058 74.671C246.703 74.671 255.328 83.2992 255.328 93.9411C255.328 104.583 246.703 113.211 236.058 113.211ZM93.9416 113.211C83.3021 113.211 74.6715 104.583 74.6715 93.9411C74.6715 83.2992 83.3021 74.671 93.9416 74.671C104.586 74.671 113.212 83.2992 113.212 93.9411C113.212 104.583 104.586 113.211 93.9416 113.211ZM315.588 7.22601H14.4165C11.7765 7.22601 9.63507 9.41797 9.63507 12.1254V151.677C9.63507 154.377 11.7765 156.569 14.4165 156.569H315.588C318.228 156.569 320.367 154.377 320.367 151.677V12.1254C320.367 9.41797 318.228 7.22601 315.588 7.22601Z" fill="#CBD0CD"/>
<path d="M236.058 113.211C225.416 113.211 216.788 104.583 216.788 93.9411C216.788 83.2992 225.416 74.6711 236.058 74.6711C246.7 74.6711 255.328 83.2992 255.328 93.9411C255.328 104.583 246.7 113.211 236.058 113.211ZM236.058 40.9484C206.794 40.9484 183.066 64.6747 183.066 93.9411C183.066 123.21 206.794 146.934 236.058 146.934C265.33 146.934 289.051 123.21 289.051 93.9411C289.051 64.6747 265.33 40.9484 236.058 40.9484Z" fill="#230F11"/>
<path d="M93.9415 113.211C83.302 113.211 74.6739 104.587 74.6739 93.941C74.6739 83.2991 83.302 74.6709 93.9415 74.6709C104.586 74.6709 113.212 83.2991 113.212 93.941C113.212 104.587 104.586 113.211 93.9415 113.211ZM93.9415 26.4957C56.6949 26.4957 26.4987 56.6946 26.4987 93.941C26.4987 131.193 56.6949 161.386 93.9415 161.386C131.191 161.386 161.387 131.193 161.387 93.941C161.387 56.6946 131.191 26.4957 93.9415 26.4957Z" fill="#230F11"/>
<path d="M249.307 199.927C245.315 199.927 242.08 196.69 242.08 192.701C242.08 188.712 245.315 185.474 249.307 185.474C253.298 185.474 256.533 188.712 256.533 192.701C256.533 196.69 253.298 199.927 249.307 199.927ZM216.788 93.9415C216.788 83.2996 225.419 74.6714 236.061 74.6714C246.7 74.6714 255.329 83.2996 255.329 93.9415C255.329 104.583 246.7 113.212 236.061 113.212C225.419 113.212 216.788 104.583 216.788 93.9415ZM227.63 182.266C227.63 184.041 225.831 185.474 223.615 185.474H219.597C217.383 185.474 215.584 184.041 215.584 182.266V179.053C215.584 177.28 217.383 175.839 219.597 175.839H223.615C225.831 175.839 227.63 177.28 227.63 179.053V182.266ZM207.153 118.029H122.849V69.8539H207.153V118.029ZM114.419 182.266C114.419 184.041 112.619 185.474 110.403 185.474H106.388C104.172 185.474 102.372 184.041 102.372 182.266V179.053C102.372 177.28 104.172 175.839 106.388 175.839H110.403C112.619 175.839 114.419 177.28 114.419 179.053V182.266ZM74.674 93.9415C74.674 83.2996 83.3022 74.6714 93.9416 74.6714C104.584 74.6714 113.212 83.2996 113.212 93.9415C113.212 104.583 104.584 113.212 93.9416 113.212C83.3022 113.212 74.674 104.583 74.674 93.9415ZM80.6935 199.927C76.7022 199.927 73.4672 196.69 73.4672 192.701C73.4672 188.712 76.7022 185.474 80.6935 185.474C84.6848 185.474 87.9197 188.712 87.9197 192.701C87.9197 196.69 84.6848 199.927 80.6935 199.927ZM315.55 9.4543e-05H14.4526C7.83093 9.4543e-05 2.40881 5.4198 2.40881 12.0439V192.701C2.40881 199.325 7.83093 204.744 14.4526 204.744H315.55C322.174 204.744 327.591 199.325 327.591 192.701V12.0439C327.591 5.4198 322.174 9.4543e-05 315.55 9.4543e-05Z" fill="#F4EABB"/>
<path d="M15.3872 7.34948V16.7412C17.5743 16.298 19.2219 14.3638 19.2219 12.0441C19.2219 9.72451 17.5743 7.79269 15.3872 7.34948ZM9.63507 12.0441C9.63507 14.3638 11.2827 16.298 13.4698 16.7412V7.34948C11.2827 7.79269 9.63507 9.72451 9.63507 12.0441Z" fill="#12181C"/>
<path d="M316.533 7.34948V16.7412C318.72 16.298 320.365 14.3638 320.365 12.0441C320.365 9.72451 318.72 7.79269 316.533 7.34948ZM310.778 12.0441C310.778 14.3638 312.426 16.298 314.613 16.7412V7.34948C312.426 7.79269 310.778 9.72451 310.778 12.0441Z" fill="#12181C"/>
<path d="M15.3872 188.129V197.518C17.5743 197.078 19.2219 195.143 19.2219 192.824C19.2219 190.504 17.5743 188.57 15.3872 188.129ZM9.63507 192.824C9.63507 195.143 11.2827 197.078 13.4698 197.518V188.129C11.2827 188.57 9.63507 190.504 9.63507 192.824Z" fill="#12181C"/>
<path d="M316.533 188.129V197.518C318.72 197.078 320.365 195.143 320.365 192.824C320.365 190.504 318.72 188.57 316.533 188.129ZM310.778 192.824C310.778 195.143 312.426 197.078 314.613 197.518V188.129C312.426 188.57 310.778 190.504 310.778 192.824Z" fill="#12181C"/>
<path d="M249.307 199.927C245.315 199.927 242.08 196.69 242.08 192.701C242.08 188.712 245.315 185.474 249.307 185.474C253.298 185.474 256.533 188.712 256.533 192.701C256.533 196.69 253.298 199.927 249.307 199.927ZM227.63 182.266C227.63 184.041 225.831 185.474 223.615 185.474H219.597C217.383 185.474 215.584 184.041 215.584 182.266V179.053C215.584 177.28 217.383 175.839 219.597 175.839H223.615C225.831 175.839 227.63 177.28 227.63 179.053V182.266ZM114.418 182.266C114.418 184.041 112.619 185.474 110.403 185.474H106.388C104.172 185.474 102.372 184.041 102.372 182.266V179.053C102.372 177.28 104.172 175.839 106.388 175.839H110.403C112.619 175.839 114.418 177.28 114.418 179.053V182.266ZM80.6934 199.927C76.7021 199.927 73.4671 196.69 73.4671 192.701C73.4671 188.712 76.7021 185.474 80.6934 185.474C84.6847 185.474 87.9197 188.712 87.9197 192.701C87.9197 196.69 84.6847 199.927 80.6934 199.927ZM267.163 163.692C266.616 161.101 264 158.978 261.353 158.978H68.652C66.0024 158.978 63.3865 161.101 62.8397 163.692L54.1971 204.744H275.805L267.163 163.692Z" fill="#E1CC9D"/>
<path d="M275.805 204.744H275.295L267.163 166.101C266.616 163.51 264 161.387 261.353 161.387H68.652C66.0024 161.387 63.3865 163.51 62.8397 166.101L54.7053 204.744H54.1971L62.8397 163.692C63.3865 161.101 66.0024 158.978 68.652 158.978H261.353C264 158.978 266.616 161.101 267.163 163.692L275.805 204.744Z" fill="#AC9E7D"/>
<path d="M165.961 166.205V175.602C168.148 175.154 169.796 173.219 169.796 170.902C169.796 168.587 168.148 166.652 165.961 166.205ZM160.206 170.902C160.206 173.219 161.854 175.154 164.041 175.602V166.205C161.854 166.652 160.206 168.587 160.206 170.902Z" fill="#192126"/>
<path d="M93.9415 113.211C83.302 113.211 74.6714 104.583 74.6714 93.9413C74.6714 83.2994 83.302 74.6712 93.9415 74.6712C104.583 74.6712 113.212 83.2994 113.212 93.9413C113.212 104.583 104.583 113.211 93.9415 113.211ZM93.9415 62.6274C76.649 62.6274 62.6276 76.649 62.6276 93.9413C62.6276 111.236 76.649 125.255 93.9415 125.255C111.236 125.255 125.255 111.236 125.255 93.9413C125.255 76.649 111.236 62.6274 93.9415 62.6274Z" fill="#C9D2C9"/>
<path d="M96.3503 120.438C96.3503 121.77 95.2736 122.846 93.9415 122.846C92.6119 122.846 91.5328 121.77 91.5328 120.438C91.5328 119.108 92.6119 118.029 93.9415 118.029C95.2736 118.029 96.3503 119.108 96.3503 120.438Z" fill="#0C0F11"/>
<path d="M96.3503 67.4452C96.3503 68.7775 95.2736 69.854 93.9415 69.854C92.6119 69.854 91.5328 68.7775 91.5328 67.4452C91.5328 66.1159 92.6119 65.0365 93.9415 65.0365C95.2736 65.0365 96.3503 66.1159 96.3503 67.4452Z" fill="#0C0F11"/>
<path d="M67.4453 96.3501C66.1156 96.3501 65.0365 95.2736 65.0365 93.9413C65.0365 92.6119 66.1156 91.5326 67.4453 91.5326C68.7773 91.5326 69.854 92.6119 69.854 93.9413C69.854 95.2736 68.7773 96.3501 67.4453 96.3501Z" fill="#0C0F11"/>
<path d="M120.438 96.3501C119.108 96.3501 118.029 95.2736 118.029 93.9413C118.029 92.6119 119.108 91.5326 120.438 91.5326C121.77 91.5326 122.847 92.6119 122.847 93.9413C122.847 95.2736 121.77 96.3501 120.438 96.3501Z" fill="#0C0F11"/>
<path d="M76.9092 114.385C75.9722 115.324 74.4451 115.324 73.5033 114.385C72.5639 113.443 72.5639 111.913 73.5033 110.979C74.4451 110.037 75.9722 110.037 76.9092 110.979C77.8511 111.913 77.8511 113.443 76.9092 114.385Z" fill="#0C0F11"/>
<path d="M114.382 76.9116C113.441 77.8534 111.913 77.8534 110.976 76.9116C110.035 75.9697 110.035 74.4471 110.976 73.5053C111.913 72.5635 113.441 72.5635 114.382 73.5053C115.322 74.4471 115.322 75.9697 114.382 76.9116Z" fill="#0C0F11"/>
<path d="M73.5033 76.9116C72.5639 75.9697 72.5639 74.4471 73.5033 73.5053C74.4451 72.5635 75.9722 72.5635 76.9092 73.5053C77.8511 74.4471 77.8511 75.9697 76.9092 76.9116C75.9722 77.8534 74.4451 77.8534 73.5033 76.9116Z" fill="#0C0F11"/>
<path d="M110.976 114.385C110.035 113.443 110.035 111.913 110.976 110.979C111.913 110.037 113.441 110.037 114.382 110.979C115.322 111.913 115.322 113.443 114.382 114.385C113.441 115.324 111.913 115.324 110.976 114.385Z" fill="#0C0F11"/>
<path d="M70.4105 106.359C69.182 106.87 67.7705 106.287 67.2599 105.061C66.7492 103.833 67.3297 102.42 68.5558 101.912C69.7842 101.399 71.1958 101.977 71.7088 103.206C72.2195 104.435 71.639 105.846 70.4105 106.359Z" fill="#0C0F11"/>
<path d="M119.33 85.9781C118.101 86.4863 116.69 85.9058 116.177 84.6798C115.666 83.4508 116.247 82.0395 117.475 81.5267C118.704 81.0187 120.115 81.5963 120.626 82.8253C121.136 84.053 120.556 85.4655 119.33 85.9781Z" fill="#0C0F11"/>
<path d="M81.5269 70.4112C81.0162 69.1822 81.5967 67.7709 82.8252 67.2627C84.0536 66.7489 85.4652 67.3277 85.9758 68.5555C86.4865 69.7844 85.9084 71.1957 84.6799 71.7085C83.4514 72.2223 82.0399 71.6389 81.5269 70.4112Z" fill="#0C0F11"/>
<path d="M101.91 119.328C101.399 118.102 101.977 116.69 103.206 116.178C104.434 115.668 105.846 116.247 106.359 117.475C106.869 118.704 106.286 120.115 105.06 120.626C103.832 121.134 102.42 120.557 101.91 119.328Z" fill="#0C0F11"/>
<path d="M68.5243 86.0821C67.2959 85.5786 66.7081 84.1674 67.2163 82.9384C67.7222 81.7049 69.1313 81.1224 70.3574 81.6259C71.5882 82.1341 72.1736 83.5406 71.6677 84.7741C71.1619 86.0002 69.7528 86.5903 68.5243 86.0821Z" fill="#0C0F11"/>
<path d="M117.526 106.26C116.297 105.752 115.712 104.345 116.218 103.116C116.724 101.883 118.13 101.3 119.361 101.804C120.59 102.312 121.177 103.718 120.669 104.952C120.163 106.178 118.754 106.768 117.526 106.26Z" fill="#0C0F11"/>
<path d="M101.804 68.5245C102.31 67.2965 103.719 66.7083 104.95 67.2165C106.181 67.7245 106.766 69.1312 106.26 70.3573C105.752 71.5908 104.345 72.1788 103.114 71.6698C101.883 71.1618 101.298 69.7551 101.804 68.5245Z" fill="#0C0F11"/>
<path d="M81.6257 117.526C82.134 116.3 83.5407 115.71 84.7716 116.218C86.0024 116.721 86.5878 118.133 86.0819 119.362C85.5761 120.591 84.1669 121.178 82.9361 120.67C81.7052 120.166 81.1199 118.755 81.6257 117.526Z" fill="#0C0F11"/>
<path d="M236.058 113.211C225.419 113.211 216.788 104.583 216.788 93.9413C216.788 83.2994 225.419 74.6712 236.058 74.6712C246.7 74.6712 255.328 83.2994 255.328 93.9413C255.328 104.583 246.7 113.211 236.058 113.211ZM236.058 62.6274C218.766 62.6274 204.745 76.649 204.745 93.9413C204.745 111.236 218.766 125.255 236.058 125.255C253.353 125.255 267.372 111.236 267.372 93.9413C267.372 76.649 253.353 62.6274 236.058 62.6274Z" fill="#C9D2C9"/>
<path d="M238.467 120.438C238.467 121.77 237.39 122.846 236.058 122.846C234.729 122.846 233.649 121.77 233.649 120.438C233.649 119.108 234.729 118.029 236.058 118.029C237.39 118.029 238.467 119.108 238.467 120.438Z" fill="#0C0F11"/>
<path d="M238.467 67.4452C238.467 68.7775 237.39 69.854 236.058 69.854C234.729 69.854 233.649 68.7775 233.649 67.4452C233.649 66.1159 234.729 65.0365 236.058 65.0365C237.39 65.0365 238.467 66.1159 238.467 67.4452Z" fill="#0C0F11"/>
<path d="M209.562 96.3501C208.232 96.3501 207.153 95.2736 207.153 93.9413C207.153 92.6119 208.232 91.5326 209.562 91.5326C210.894 91.5326 211.971 92.6119 211.971 93.9413C211.971 95.2736 210.894 96.3501 209.562 96.3501Z" fill="#0C0F11"/>
<path d="M262.555 96.3501C261.225 96.3501 260.146 95.2736 260.146 93.9413C260.146 92.6119 261.225 91.5326 262.555 91.5326C263.887 91.5326 264.964 92.6119 264.964 93.9413C264.964 95.2736 263.887 96.3501 262.555 96.3501Z" fill="#0C0F11"/>
<path d="M219.026 114.385C218.089 115.324 216.562 115.324 215.62 114.385C214.681 113.443 214.681 111.913 215.62 110.979C216.562 110.037 218.089 110.037 219.026 110.979C219.968 111.913 219.968 113.443 219.026 114.385Z" fill="#0C0F11"/>
<path d="M256.499 76.9116C255.557 77.8534 254.03 77.8534 253.093 76.9116C252.151 75.9697 252.151 74.4471 253.093 73.5053C254.03 72.5635 255.557 72.5635 256.499 73.5053C257.439 74.4471 257.439 75.9697 256.499 76.9116Z" fill="#0C0F11"/>
<path d="M215.62 76.9116C214.681 75.9697 214.681 74.4471 215.62 73.5053C216.562 72.5635 218.089 72.5635 219.026 73.5053C219.968 74.4471 219.968 75.9697 219.026 76.9116C218.089 77.8534 216.562 77.8534 215.62 76.9116Z" fill="#0C0F11"/>
<path d="M253.093 114.385C252.151 113.443 252.151 111.913 253.093 110.979C254.03 110.037 255.557 110.037 256.499 110.979C257.439 111.913 257.439 113.443 256.499 114.385C255.557 115.324 254.03 115.324 253.093 114.385Z" fill="#0C0F11"/>
<path d="M212.527 106.359C211.299 106.87 209.887 106.287 209.377 105.061C208.866 103.833 209.446 102.42 210.672 101.912C211.901 101.399 213.312 101.977 213.826 103.206C214.336 104.435 213.756 105.846 212.527 106.359Z" fill="#0C0F11"/>
<path d="M261.447 85.9781C260.218 86.4863 258.807 85.9058 258.294 84.6798C257.783 83.4508 258.364 82.0395 259.592 81.5267C260.821 81.0187 262.232 81.5963 262.743 82.8253C263.253 84.053 262.673 85.4655 261.447 85.9781Z" fill="#0C0F11"/>
<path d="M223.644 70.4112C223.133 69.1822 223.714 67.7709 224.942 67.2627C226.171 66.7489 227.582 67.3277 228.093 68.5555C228.603 69.7844 228.025 71.1957 226.797 71.7085C225.568 72.2223 224.157 71.6389 223.644 70.4112Z" fill="#0C0F11"/>
<path d="M244.027 119.328C243.516 118.102 244.094 116.69 245.322 116.178C246.551 115.668 247.962 116.247 248.476 117.475C248.986 118.704 248.403 120.115 247.177 120.626C245.949 121.134 244.537 120.557 244.027 119.328Z" fill="#0C0F11"/>
<path d="M210.641 86.0821C209.413 85.5786 208.825 84.1674 209.333 82.9384C209.839 81.7049 211.248 81.1224 212.474 81.6259C213.705 82.1341 214.291 83.5406 213.785 84.7741C213.279 86.0002 211.87 86.5903 210.641 86.0821Z" fill="#0C0F11"/>
<path d="M259.643 106.26C258.414 105.752 257.829 104.345 258.335 103.116C258.841 101.883 260.247 101.3 261.478 101.804C262.707 102.312 263.294 103.718 262.786 104.952C262.28 106.178 260.871 106.768 259.643 106.26Z" fill="#0C0F11"/>
<path d="M243.921 68.5245C244.426 67.2965 245.836 66.7083 247.066 67.2165C248.297 67.7245 248.883 69.1312 248.377 70.3573C247.869 71.5908 246.462 72.1788 245.231 71.6698C244 71.1618 243.415 69.7551 243.921 68.5245Z" fill="#0C0F11"/>
<path d="M223.742 117.526C224.251 116.3 225.657 115.71 226.888 116.218C228.119 116.721 228.704 118.133 228.199 119.362C227.693 120.591 226.284 121.178 225.053 120.67C223.822 120.166 223.237 118.755 223.742 117.526Z" fill="#0C0F11"/>
<path d="M93.9416 72.2626C105.916 72.2626 115.62 81.9701 115.62 93.9414C115.62 105.916 105.916 115.62 93.9416 115.62C81.9701 115.62 72.2628 105.916 72.2628 93.9414C72.2628 81.9701 81.9701 72.2626 93.9416 72.2626ZM125.255 74.6713H204.745V113.211H125.255V74.6713ZM236.058 72.2626C248.032 72.2626 257.737 81.9701 257.737 93.9414C257.737 105.916 248.032 115.62 236.058 115.62C224.087 115.62 214.38 105.916 214.38 93.9414C214.38 81.9701 224.087 72.2626 236.058 72.2626ZM28.9051 154.16H301.095L315.547 139.708V26.4962L301.095 12.0439H28.9051L14.4526 26.4962V139.708L28.9051 154.16Z" fill="#F03D3A"/>
<path d="M236.058 113.212C225.419 113.212 216.788 104.583 216.788 93.9415C216.788 83.2996 225.419 74.6714 236.058 74.6714C246.703 74.6714 255.328 83.2996 255.328 93.9415C255.328 104.583 246.703 113.212 236.058 113.212ZM202.336 105.985C202.336 108.635 200.168 110.803 197.518 110.803H132.482C129.835 110.803 127.664 108.635 127.664 105.985V81.8977C127.664 79.2509 129.835 77.0801 132.482 77.0801H197.518C200.168 77.0801 202.336 79.2509 202.336 81.8977V105.985ZM93.9416 113.212C83.3021 113.212 74.6715 104.583 74.6715 93.9415C74.6715 83.2996 83.3021 74.6714 93.9416 74.6714C104.583 74.6714 113.212 83.2996 113.212 93.9415C113.212 104.583 104.583 113.212 93.9416 113.212ZM236.058 69.8539H93.9416C80.638 69.8539 69.854 80.6379 69.854 93.9415C69.854 107.248 80.638 118.029 93.9416 118.029H236.058C249.364 118.029 260.146 107.248 260.146 93.9415C260.146 80.6379 249.364 69.8539 236.058 69.8539Z" fill="#F4EABB"/>
<path d="M236.058 118.029H93.9416C80.638 118.029 69.854 107.248 69.854 93.9413C69.854 80.6377 80.638 69.8537 93.9416 69.8537H236.058C249.364 69.8537 260.146 80.6377 260.146 93.9413C260.146 107.248 249.364 118.029 236.058 118.029ZM14.455 62.6274V125.255H315.547V62.6274H14.455Z" fill="#12181C"/>
<path d="M146.934 103.577H144.526V84.3066H146.934V103.577Z" fill="#949796"/>
<path d="M156.569 103.577H154.161V84.3066H156.569V103.577Z" fill="#949796"/>
<path d="M166.204 103.577H163.796V84.3066H166.204V103.577Z" fill="#949796"/>
<path d="M175.839 103.577H173.431V84.3066H175.839V103.577Z" fill="#949796"/>
<path d="M185.474 103.577H183.066V84.3066H185.474V103.577Z" fill="#949796"/>
<path d="M301.095 154.16H28.9051L14.4526 139.708V125.255H315.547V139.708L301.095 154.16Z" fill="#12181C"/>
<path d="M260.146 54.197H69.854V52.9926H260.146V54.197Z" fill="#12181C"/>
<path d="M260.146 37.3354H69.854V36.1311H260.146V37.3354Z" fill="#12181C"/>
<path d="M62.6278 49.2713C62.6278 52.6559 59.8818 55.4014 56.4975 55.4014H35.0378C31.6511 55.4014 28.9052 52.6559 28.9052 49.2713V27.8088C28.9052 24.4225 31.6511 21.679 35.0378 21.679H56.4975C59.8818 21.679 62.6278 24.4225 62.6278 27.8088V49.2713Z" fill="#12181C"/>
</svg>
