<svg width="44" height="44" viewBox="0 0 44 44" fill="none" xmlns="http://www.w3.org/2000/svg">
<path d="M24.3504 38.6101V33.9856H19.5329V38.6101C15.45 38.0277 11.8442 35.9851 9.25473 33.0221L13.1401 30.5097L10.5217 26.463L6.63403 28.9799C5.64644 26.8364 5.08034 24.4587 5.08034 21.9418C5.08034 19.4294 5.64644 17.0498 6.63403 14.9036L10.5217 17.4208L13.1401 13.3813L9.25473 10.8644C11.8442 7.89847 15.45 5.85873 19.5329 5.2734V9.89797H24.3504V5.2734C28.4357 5.85873 32.0416 7.89847 34.631 10.8644L30.7457 13.3813L33.364 17.4208L37.2517 14.9036C38.2393 17.0498 38.803 19.4294 38.803 21.9418C38.803 24.4587 38.2393 26.8364 37.2517 28.9799L33.364 26.463L30.7457 30.5097L34.631 33.0221C32.0416 35.9851 28.4357 38.0277 24.3504 38.6101ZM21.9417 0.262936C9.97012 0.262936 0.262817 9.97048 0.262817 21.9418C0.262817 33.916 9.97012 43.6206 21.9417 43.6206C33.9156 43.6206 43.6205 33.916 43.6205 21.9418C43.6205 9.97048 33.9156 0.262936 21.9417 0.262936Z" fill="#0C0F11"/>
</svg>
