<svg width="400" height="474" viewBox="0 0 400 474" fill="none" xmlns="http://www.w3.org/2000/svg">
<mask id="path-1-inside-1_430_52" fill="white">
<path fill-rule="evenodd" clip-rule="evenodd" d="M25 0C11.1929 0 0 11.1929 0 25V449C0 462.807 11.1929 474 25 474H375C388.807 474 400 462.807 400 449V25C400 11.1929 388.807 0 375 0H25ZM50 255C47.2386 255 45 257.239 45 260V440C45 442.761 47.2386 445 50 445H350C352.761 445 355 442.761 355 440V260C355 257.239 352.761 255 350 255H50Z"/>
</mask>
<path fill-rule="evenodd" clip-rule="evenodd" d="M25 0C11.1929 0 0 11.1929 0 25V449C0 462.807 11.1929 474 25 474H375C388.807 474 400 462.807 400 449V25C400 11.1929 388.807 0 375 0H25ZM50 255C47.2386 255 45 257.239 45 260V440C45 442.761 47.2386 445 50 445H350C352.761 445 355 442.761 355 440V260C355 257.239 352.761 255 350 255H50Z" fill="#F2D308"/>
<path d="M2 25C2 12.2974 12.2975 2 25 2V-2C10.0883 -2 -2 10.0883 -2 25H2ZM2 449V25H-2V449H2ZM25 472C12.2975 472 2 461.703 2 449H-2C-2 463.912 10.0883 476 25 476V472ZM375 472H25V476H375V472ZM398 449C398 461.703 387.703 472 375 472V476C389.912 476 402 463.912 402 449H398ZM398 25V449H402V25H398ZM375 2C387.703 2 398 12.2975 398 25H402C402 10.0883 389.912 -2 375 -2V2ZM25 2H375V-2H25V2ZM47 260C47 258.343 48.3431 257 50 257V253C46.134 253 43 256.134 43 260H47ZM47 440V260H43V440H47ZM50 443C48.3431 443 47 441.657 47 440H43C43 443.866 46.134 447 50 447V443ZM350 443H50V447H350V443ZM353 440C353 441.657 351.657 443 350 443V447C353.866 447 357 443.866 357 440H353ZM353 260V440H357V260H353ZM350 257C351.657 257 353 258.343 353 260H357C357 256.134 353.866 253 350 253V257ZM50 257H350V253H50V257Z" fill="url(#paint0_linear_430_52)" mask="url(#path-1-inside-1_430_52)"/>
<g filter="url(#filter0_i_430_52)">
<path fill-rule="evenodd" clip-rule="evenodd" d="M53 251C44.7157 251 38 257.716 38 266V434C38 442.284 44.7157 449 53 449H347C355.284 449 362 442.284 362 434V266C362 257.716 355.284 251 347 251H53ZM50 258C47.2386 258 45 260.239 45 263V437C45 439.761 47.2386 442 50 442H350C352.761 442 355 439.761 355 437V263C355 260.239 352.761 258 350 258H50Z" fill="#F2D308"/>
</g>
<rect x="45" y="258" width="310" height="184" rx="5" fill="url(#paint1_linear_430_52)"/>
<defs>
<filter id="filter0_i_430_52" x="38" y="251" width="324" height="198" filterUnits="userSpaceOnUse" color-interpolation-filters="sRGB">
<feFlood flood-opacity="0" result="BackgroundImageFix"/>
<feBlend mode="normal" in="SourceGraphic" in2="BackgroundImageFix" result="shape"/>
<feColorMatrix in="SourceAlpha" type="matrix" values="0 0 0 0 0 0 0 0 0 0 0 0 0 0 0 0 0 0 127 0" result="hardAlpha"/>
<feOffset/>
<feGaussianBlur stdDeviation="1.5"/>
<feComposite in2="hardAlpha" operator="arithmetic" k2="-1" k3="1"/>
<feColorMatrix type="matrix" values="0 0 0 0 0 0 0 0 0 0 0 0 0 0 0 0 0 0 0.35 0"/>
<feBlend mode="normal" in2="shape" result="effect1_innerShadow_430_52"/>
</filter>
<linearGradient id="paint0_linear_430_52" x1="200" y1="0" x2="200" y2="474" gradientUnits="userSpaceOnUse">
<stop stop-color="white" stop-opacity="0.71"/>
<stop offset="0.0364583" stop-color="white" stop-opacity="0"/>
</linearGradient>
<linearGradient id="paint1_linear_430_52" x1="45" y1="258" x2="263.5" y2="403" gradientUnits="userSpaceOnUse">
<stop stop-color="white" stop-opacity="0.4"/>
<stop offset="1" stop-color="white" stop-opacity="0.1"/>
</linearGradient>
</defs>
</svg>
