<svg width="1279" height="142" viewBox="0 0 1279 142" fill="none" xmlns="http://www.w3.org/2000/svg">
<rect x="-2.00006" y="21" width="1280" height="100" fill="#FCB040"/>
<path d="M109.156 21H128.274L37.2361 121L18.118 121L-1.00007 121L90.0384 21H109.156Z" fill="#2B190B"/>
<path d="M182.898 21H202.016L110.977 121L91.8591 121L72.7411 121L163.78 21H182.898Z" fill="#2B190B"/>
<path d="M252.997 21H272.115L181.077 121L161.959 121L142.841 121L233.879 21H252.997Z" fill="#2B190B"/>
<path d="M326.738 21H345.856L254.818 121L235.7 121L216.582 121L307.62 21H326.738Z" fill="#2B190B"/>
<path d="M396.838 21H415.956L324.917 121L305.799 121L286.681 121L377.72 21H396.838Z" fill="#2B190B"/>
<path d="M470.579 21H489.697L398.659 121L379.541 121L360.422 121L451.461 21H470.579Z" fill="#2B190B"/>
<path d="M540.679 21H559.797L468.758 121L449.64 121L430.522 121L521.561 21H540.679Z" fill="#2B190B"/>
<path d="M614.42 21H633.538L542.499 121L523.381 121L504.263 121L595.302 21H614.42Z" fill="#2B190B"/>
<path d="M684.519 21H703.637L612.599 121L593.481 121L574.363 121L665.401 21H684.519Z" fill="#2B190B"/>
<path d="M758.26 21H777.378L686.34 121L667.222 121L648.104 121L739.142 21H758.26Z" fill="#2B190B"/>
<path d="M828.36 21H847.478L756.439 121L737.321 121L718.203 121L809.242 21H828.36Z" fill="#2B190B"/>
<path d="M902.101 21H921.219L830.181 121L811.063 121L791.945 121L882.983 21H902.101Z" fill="#2B190B"/>
<path d="M972.201 21H991.319L900.28 121L881.162 121L862.044 121L953.082 21H972.201Z" fill="#2B190B"/>
<path d="M1045.94 21H1065.06L974.021 121L954.903 121L935.785 121L1026.82 21H1045.94Z" fill="#2B190B"/>
<path d="M1116.04 21H1135.16L1044.12 121L1025 121L1005.88 121L1096.92 21H1116.04Z" fill="#2B190B"/>
<path d="M1189.78 21H1208.9L1117.86 121L1098.74 121L1079.63 121L1170.66 21H1189.78Z" fill="#2B190B"/>
<path d="M1259.88 21H1279L1187.96 121L1168.84 121L1149.73 121L1240.76 21H1259.88Z" fill="#2B190B"/>
<rect x="-1" y="38" width="1280" height="65" fill="#FCB040"/>
<path d="M492.869 86V56.9091H504.006C506.108 56.9091 507.855 57.2405 509.247 57.9034C510.649 58.5568 511.695 59.4517 512.386 60.5881C513.087 61.7244 513.437 63.0123 513.437 64.4517C513.437 65.6354 513.21 66.6487 512.756 67.4915C512.301 68.3248 511.69 69.0019 510.923 69.5227C510.156 70.0436 509.299 70.4176 508.352 70.6449V70.929C509.384 70.9858 510.374 71.303 511.321 71.8807C512.277 72.4489 513.059 73.2538 513.665 74.2955C514.271 75.3371 514.574 76.5966 514.574 78.0739C514.574 79.5795 514.209 80.9337 513.48 82.1364C512.751 83.3295 511.652 84.2718 510.185 84.9631C508.717 85.6544 506.87 86 504.645 86H492.869ZM498.139 81.5966H503.807C505.72 81.5966 507.098 81.232 507.94 80.5028C508.793 79.7642 509.219 78.8172 509.219 77.6619C509.219 76.8002 509.006 76.0237 508.58 75.3324C508.153 74.6316 507.547 74.0824 506.761 73.6847C505.975 73.2775 505.038 73.0739 503.949 73.0739H498.139V81.5966ZM498.139 69.2812H503.352C504.261 69.2812 505.08 69.1155 505.81 68.7841C506.539 68.4432 507.112 67.965 507.528 67.3494C507.955 66.7244 508.168 65.9858 508.168 65.1335C508.168 64.0066 507.77 63.0786 506.974 62.3494C506.188 61.6203 505.019 61.2557 503.466 61.2557H498.139V69.2812ZM529.08 86V56.9091H539.989C542.224 56.9091 544.099 57.3258 545.614 58.1591C547.139 58.9924 548.29 60.1383 549.066 61.5966C549.852 63.0455 550.245 64.6932 550.245 66.5398C550.245 68.4053 549.852 70.0625 549.066 71.5114C548.28 72.9602 547.12 74.1013 545.586 74.9347C544.052 75.7585 542.163 76.1705 539.918 76.1705H532.688V71.8381H539.208C540.515 71.8381 541.585 71.6108 542.418 71.1562C543.252 70.7017 543.867 70.0767 544.265 69.2812C544.672 68.4858 544.876 67.572 544.876 66.5398C544.876 65.5076 544.672 64.5985 544.265 63.8125C543.867 63.0265 543.247 62.4157 542.404 61.9801C541.571 61.535 540.496 61.3125 539.18 61.3125H534.35V86H529.08ZM555.316 86H549.691L559.932 56.9091H566.438L576.694 86H571.069L563.299 62.875H563.072L555.316 86ZM555.501 74.5938H570.842V78.8267H555.501V74.5938ZM590.682 86.3977C588.636 86.3977 586.818 86.0473 585.227 85.3466C583.646 84.6458 582.396 83.6705 581.477 82.4205C580.559 81.1705 580.071 79.7263 580.014 78.0881H585.355C585.402 78.8741 585.663 79.5606 586.136 80.1477C586.61 80.7254 587.24 81.1752 588.026 81.4972C588.812 81.8191 589.692 81.9801 590.668 81.9801C591.709 81.9801 592.633 81.8002 593.437 81.4403C594.242 81.071 594.872 80.5597 595.327 79.9062C595.781 79.2528 596.004 78.5 595.994 77.6477C596.004 76.767 595.776 75.9905 595.312 75.3182C594.848 74.6458 594.176 74.1203 593.295 73.7415C592.424 73.3627 591.373 73.1733 590.142 73.1733H587.571V69.1108H590.142C591.155 69.1108 592.041 68.9356 592.798 68.5852C593.565 68.2348 594.167 67.7424 594.602 67.108C595.038 66.464 595.251 65.7206 595.241 64.8778C595.251 64.054 595.066 63.339 594.687 62.733C594.318 62.1174 593.793 61.6392 593.111 61.2983C592.438 60.9574 591.648 60.7869 590.739 60.7869C589.848 60.7869 589.025 60.9479 588.267 61.2699C587.509 61.5919 586.899 62.0511 586.435 62.6477C585.971 63.2348 585.724 63.9356 585.696 64.75H580.625C580.663 63.1212 581.132 61.6913 582.031 60.4602C582.94 59.2197 584.152 58.2538 585.668 57.5625C587.183 56.8617 588.883 56.5114 590.767 56.5114C592.708 56.5114 594.394 56.8759 595.824 57.6051C597.263 58.3248 598.376 59.2955 599.162 60.517C599.948 61.7386 600.341 63.0881 600.341 64.5653C600.35 66.2036 599.867 67.5767 598.892 68.6847C597.926 69.7926 596.657 70.517 595.085 70.858V71.0852C597.131 71.3693 598.698 72.1269 599.787 73.358C600.885 74.5795 601.43 76.0994 601.42 77.9176C601.42 79.5464 600.956 81.0047 600.028 82.2926C599.11 83.571 597.841 84.5748 596.222 85.304C594.612 86.0331 592.765 86.3977 590.682 86.3977ZM606.58 86V56.9091H617.489C619.724 56.9091 621.599 57.3258 623.114 58.1591C624.639 58.9924 625.79 60.1383 626.566 61.5966C627.352 63.0455 627.745 64.6932 627.745 66.5398C627.745 68.4053 627.352 70.0625 626.566 71.5114C625.78 72.9602 624.62 74.1013 623.086 74.9347C621.552 75.7585 619.663 76.1705 617.418 76.1705H610.188V71.8381H616.708C618.015 71.8381 619.085 71.6108 619.918 71.1562C620.752 70.7017 621.367 70.0767 621.765 69.2812C622.172 68.4858 622.376 67.572 622.376 66.5398C622.376 65.5076 622.172 64.5985 621.765 63.8125C621.367 63.0265 620.747 62.4157 619.904 61.9801C619.071 61.535 617.996 61.3125 616.68 61.3125H611.85V86H606.58ZM632.816 86H627.191L637.432 56.9091H643.938L654.194 86H648.569L640.799 62.875H640.572L632.816 86ZM633.001 74.5938H648.342V78.8267H633.001V74.5938ZM658.026 86V56.9091H676.733V61.3267H663.295V68.1449H668.906C671.132 68.1449 673.04 68.5095 674.631 69.2386C676.231 69.9583 677.457 70.9763 678.31 72.2926C679.162 73.6089 679.588 75.1572 679.588 76.9375C679.588 78.7273 679.162 80.304 678.31 81.6676C677.457 83.0218 676.231 84.0824 674.631 84.8494C673.04 85.6165 671.132 86 668.906 86H658.026ZM663.295 81.6818H668.906C670.08 81.6818 671.075 81.4593 671.889 81.0142C672.704 80.5691 673.319 79.982 673.736 79.2528C674.162 78.5237 674.375 77.733 674.375 76.8807C674.375 75.6496 673.901 74.6032 672.955 73.7415C672.017 72.8703 670.668 72.4347 668.906 72.4347H663.295V81.6818ZM710.192 71.4545C710.192 74.589 709.605 77.2737 708.43 79.5085C707.266 81.7339 705.675 83.4384 703.658 84.6222C701.65 85.8059 699.373 86.3977 696.825 86.3977C694.278 86.3977 691.996 85.8059 689.979 84.6222C687.971 83.429 686.38 81.7197 685.206 79.4943C684.041 77.2595 683.459 74.5795 683.459 71.4545C683.459 68.3201 684.041 65.6402 685.206 63.4148C686.38 61.1799 687.971 59.4706 689.979 58.2869C691.996 57.1032 694.278 56.5114 696.825 56.5114C699.373 56.5114 701.65 57.1032 703.658 58.2869C705.675 59.4706 707.266 61.1799 708.43 63.4148C709.605 65.6402 710.192 68.3201 710.192 71.4545ZM704.893 71.4545C704.893 69.2481 704.548 67.3873 703.857 65.8722C703.175 64.3475 702.228 63.197 701.016 62.4205C699.803 61.6345 698.407 61.2415 696.825 61.2415C695.244 61.2415 693.847 61.6345 692.635 62.4205C691.423 63.197 690.471 64.3475 689.78 65.8722C689.098 67.3873 688.757 69.2481 688.757 71.4545C688.757 73.661 689.098 75.5265 689.78 77.0511C690.471 78.5663 691.423 79.7169 692.635 80.5028C693.847 81.2794 695.244 81.6676 696.825 81.6676C698.407 81.6676 699.803 81.2794 701.016 80.5028C702.228 79.7169 703.175 78.5663 703.857 77.0511C704.548 75.5265 704.893 73.661 704.893 71.4545ZM712.607 61.3267V56.9091H735.817V61.3267H726.825V86H721.598V61.3267H712.607ZM757.72 86L748.146 73.2869H745.561V86H740.291V56.9091H745.561V68.8693H746.882L757.223 56.9091H763.714L752.223 70.1761L764.212 86H757.72ZM767.791 86V56.9091H786.712V61.3267H773.061V69.2244H785.732V73.642H773.061V81.5824H786.825V86H767.791Z" fill="black"/>
<path d="M872.869 86V56.9091H884.006C886.108 56.9091 887.855 57.2405 889.247 57.9034C890.649 58.5568 891.695 59.4517 892.386 60.5881C893.087 61.7244 893.438 63.0123 893.438 64.4517C893.438 65.6354 893.21 66.6487 892.756 67.4915C892.301 68.3248 891.69 69.0019 890.923 69.5227C890.156 70.0436 889.299 70.4176 888.352 70.6449V70.929C889.384 70.9858 890.374 71.303 891.321 71.8807C892.277 72.4489 893.059 73.2538 893.665 74.2955C894.271 75.3371 894.574 76.5966 894.574 78.0739C894.574 79.5795 894.209 80.9337 893.48 82.1364C892.751 83.3295 891.652 84.2718 890.185 84.9631C888.717 85.6544 886.87 86 884.645 86H872.869ZM878.139 81.5966H883.807C885.72 81.5966 887.098 81.232 887.94 80.5028C888.793 79.7642 889.219 78.8172 889.219 77.6619C889.219 76.8002 889.006 76.0237 888.58 75.3324C888.153 74.6316 887.547 74.0824 886.761 73.6847C885.975 73.2775 885.038 73.0739 883.949 73.0739H878.139V81.5966ZM878.139 69.2812H883.352C884.261 69.2812 885.08 69.1155 885.81 68.7841C886.539 68.4432 887.112 67.965 887.528 67.3494C887.955 66.7244 888.168 65.9858 888.168 65.1335C888.168 64.0066 887.77 63.0786 886.974 62.3494C886.188 61.6203 885.019 61.2557 883.466 61.2557H878.139V69.2812ZM909.08 86V56.9091H919.989C922.224 56.9091 924.099 57.3258 925.614 58.1591C927.139 58.9924 928.29 60.1383 929.066 61.5966C929.852 63.0455 930.245 64.6932 930.245 66.5398C930.245 68.4053 929.852 70.0625 929.066 71.5114C928.28 72.9602 927.12 74.1013 925.586 74.9347C924.052 75.7585 922.163 76.1705 919.918 76.1705H912.688V71.8381H919.208C920.515 71.8381 921.585 71.6108 922.418 71.1562C923.252 70.7017 923.867 70.0767 924.265 69.2812C924.672 68.4858 924.876 67.572 924.876 66.5398C924.876 65.5076 924.672 64.5985 924.265 63.8125C923.867 63.0265 923.247 62.4157 922.404 61.9801C921.571 61.535 920.496 61.3125 919.18 61.3125H914.35V86H909.08ZM935.316 86H929.691L939.933 56.9091H946.438L956.694 86H951.069L943.299 62.875H943.072L935.316 86ZM935.501 74.5938H950.842V78.8267H935.501V74.5938ZM970.682 86.3977C968.636 86.3977 966.818 86.0473 965.227 85.3466C963.646 84.6458 962.396 83.6705 961.477 82.4205C960.559 81.1705 960.071 79.7263 960.014 78.0881H965.355C965.402 78.8741 965.663 79.5606 966.136 80.1477C966.61 80.7254 967.24 81.1752 968.026 81.4972C968.812 81.8191 969.692 81.9801 970.668 81.9801C971.709 81.9801 972.633 81.8002 973.438 81.4403C974.242 81.071 974.872 80.5597 975.327 79.9062C975.781 79.2528 976.004 78.5 975.994 77.6477C976.004 76.767 975.777 75.9905 975.312 75.3182C974.848 74.6458 974.176 74.1203 973.295 73.7415C972.424 73.3627 971.373 73.1733 970.142 73.1733H967.571V69.1108H970.142C971.155 69.1108 972.041 68.9356 972.798 68.5852C973.565 68.2348 974.167 67.7424 974.602 67.108C975.038 66.464 975.251 65.7206 975.241 64.8778C975.251 64.054 975.066 63.339 974.688 62.733C974.318 62.1174 973.793 61.6392 973.111 61.2983C972.438 60.9574 971.648 60.7869 970.739 60.7869C969.848 60.7869 969.025 60.9479 968.267 61.2699C967.509 61.5919 966.899 62.0511 966.435 62.6477C965.971 63.2348 965.724 63.9356 965.696 64.75H960.625C960.663 63.1212 961.132 61.6913 962.031 60.4602C962.94 59.2197 964.152 58.2538 965.668 57.5625C967.183 56.8617 968.883 56.5114 970.767 56.5114C972.708 56.5114 974.394 56.8759 975.824 57.6051C977.263 58.3248 978.376 59.2955 979.162 60.517C979.948 61.7386 980.341 63.0881 980.341 64.5653C980.35 66.2036 979.867 67.5767 978.892 68.6847C977.926 69.7926 976.657 70.517 975.085 70.858V71.0852C977.131 71.3693 978.698 72.1269 979.787 73.358C980.885 74.5795 981.43 76.0994 981.42 77.9176C981.42 79.5464 980.956 81.0047 980.028 82.2926C979.11 83.571 977.841 84.5748 976.222 85.304C974.612 86.0331 972.765 86.3977 970.682 86.3977ZM986.58 86V56.9091H997.489C999.724 56.9091 1001.6 57.3258 1003.11 58.1591C1004.64 58.9924 1005.79 60.1383 1006.57 61.5966C1007.35 63.0455 1007.75 64.6932 1007.75 66.5398C1007.75 68.4053 1007.35 70.0625 1006.57 71.5114C1005.78 72.9602 1004.62 74.1013 1003.09 74.9347C1001.55 75.7585 999.663 76.1705 997.418 76.1705H990.188V71.8381H996.708C998.015 71.8381 999.085 71.6108 999.918 71.1562C1000.75 70.7017 1001.37 70.0767 1001.76 69.2812C1002.17 68.4858 1002.38 67.572 1002.38 66.5398C1002.38 65.5076 1002.17 64.5985 1001.76 63.8125C1001.37 63.0265 1000.75 62.4157 999.904 61.9801C999.071 61.535 997.996 61.3125 996.68 61.3125H991.85V86H986.58ZM1012.82 86H1007.19L1017.43 56.9091H1023.94L1034.19 86H1028.57L1020.8 62.875H1020.57L1012.82 86ZM1013 74.5938H1028.34V78.8267H1013V74.5938ZM1038.03 86V56.9091H1056.73V61.3267H1043.3V68.1449H1048.91C1051.13 68.1449 1053.04 68.5095 1054.63 69.2386C1056.23 69.9583 1057.46 70.9763 1058.31 72.2926C1059.16 73.6089 1059.59 75.1572 1059.59 76.9375C1059.59 78.7273 1059.16 80.304 1058.31 81.6676C1057.46 83.0218 1056.23 84.0824 1054.63 84.8494C1053.04 85.6165 1051.13 86 1048.91 86H1038.03ZM1043.3 81.6818H1048.91C1050.08 81.6818 1051.07 81.4593 1051.89 81.0142C1052.7 80.5691 1053.32 79.982 1053.74 79.2528C1054.16 78.5237 1054.38 77.733 1054.38 76.8807C1054.38 75.6496 1053.9 74.6032 1052.95 73.7415C1052.02 72.8703 1050.67 72.4347 1048.91 72.4347H1043.3V81.6818ZM1090.19 71.4545C1090.19 74.589 1089.6 77.2737 1088.43 79.5085C1087.27 81.7339 1085.67 83.4384 1083.66 84.6222C1081.65 85.8059 1079.37 86.3977 1076.83 86.3977C1074.28 86.3977 1072 85.8059 1069.98 84.6222C1067.97 83.429 1066.38 81.7197 1065.21 79.4943C1064.04 77.2595 1063.46 74.5795 1063.46 71.4545C1063.46 68.3201 1064.04 65.6402 1065.21 63.4148C1066.38 61.1799 1067.97 59.4706 1069.98 58.2869C1072 57.1032 1074.28 56.5114 1076.83 56.5114C1079.37 56.5114 1081.65 57.1032 1083.66 58.2869C1085.67 59.4706 1087.27 61.1799 1088.43 63.4148C1089.6 65.6402 1090.19 68.3201 1090.19 71.4545ZM1084.89 71.4545C1084.89 69.2481 1084.55 67.3873 1083.86 65.8722C1083.17 64.3475 1082.23 63.197 1081.02 62.4205C1079.8 61.6345 1078.41 61.2415 1076.83 61.2415C1075.24 61.2415 1073.85 61.6345 1072.63 62.4205C1071.42 63.197 1070.47 64.3475 1069.78 65.8722C1069.1 67.3873 1068.76 69.2481 1068.76 71.4545C1068.76 73.661 1069.1 75.5265 1069.78 77.0511C1070.47 78.5663 1071.42 79.7169 1072.63 80.5028C1073.85 81.2794 1075.24 81.6676 1076.83 81.6676C1078.41 81.6676 1079.8 81.2794 1081.02 80.5028C1082.23 79.7169 1083.17 78.5663 1083.86 77.0511C1084.55 75.5265 1084.89 73.661 1084.89 71.4545ZM1092.61 61.3267V56.9091H1115.82V61.3267H1106.83V86H1101.6V61.3267H1092.61ZM1137.72 86L1128.15 73.2869H1125.56V86H1120.29V56.9091H1125.56V68.8693H1126.88L1137.22 56.9091H1143.71L1132.22 70.1761L1144.21 86H1137.72ZM1147.79 86V56.9091H1166.71V61.3267H1153.06V69.2244H1165.73V73.642H1153.06V81.5824H1166.83V86H1147.79Z" fill="black"/>
<path d="M112.869 86V56.9091H124.006C126.108 56.9091 127.855 57.2405 129.247 57.9034C130.649 58.5568 131.695 59.4517 132.386 60.5881C133.087 61.7244 133.438 63.0123 133.438 64.4517C133.438 65.6354 133.21 66.6487 132.756 67.4915C132.301 68.3248 131.69 69.0019 130.923 69.5227C130.156 70.0436 129.299 70.4176 128.352 70.6449V70.929C129.384 70.9858 130.374 71.303 131.321 71.8807C132.277 72.4489 133.059 73.2538 133.665 74.2955C134.271 75.3371 134.574 76.5966 134.574 78.0739C134.574 79.5795 134.209 80.9337 133.48 82.1364C132.751 83.3295 131.652 84.2718 130.185 84.9631C128.717 85.6544 126.87 86 124.645 86H112.869ZM118.139 81.5966H123.807C125.72 81.5966 127.098 81.232 127.94 80.5028C128.793 79.7642 129.219 78.8172 129.219 77.6619C129.219 76.8002 129.006 76.0237 128.58 75.3324C128.153 74.6316 127.547 74.0824 126.761 73.6847C125.975 73.2775 125.038 73.0739 123.949 73.0739H118.139V81.5966ZM118.139 69.2812H123.352C124.261 69.2812 125.08 69.1155 125.81 68.7841C126.539 68.4432 127.112 67.965 127.528 67.3494C127.955 66.7244 128.168 65.9858 128.168 65.1335C128.168 64.0066 127.77 63.0786 126.974 62.3494C126.188 61.6203 125.019 61.2557 123.466 61.2557H118.139V69.2812ZM149.08 86V56.9091H159.989C162.224 56.9091 164.099 57.3258 165.614 58.1591C167.139 58.9924 168.29 60.1383 169.066 61.5966C169.852 63.0455 170.245 64.6932 170.245 66.5398C170.245 68.4053 169.852 70.0625 169.066 71.5114C168.28 72.9602 167.12 74.1013 165.586 74.9347C164.052 75.7585 162.163 76.1705 159.918 76.1705H152.688V71.8381H159.208C160.515 71.8381 161.585 71.6108 162.418 71.1562C163.252 70.7017 163.867 70.0767 164.265 69.2812C164.672 68.4858 164.876 67.572 164.876 66.5398C164.876 65.5076 164.672 64.5985 164.265 63.8125C163.867 63.0265 163.247 62.4157 162.404 61.9801C161.571 61.535 160.496 61.3125 159.18 61.3125H154.35V86H149.08ZM175.316 86H169.691L179.933 56.9091H186.438L196.694 86H191.069L183.299 62.875H183.072L175.316 86ZM175.501 74.5938H190.842V78.8267H175.501V74.5938ZM210.682 86.3977C208.636 86.3977 206.818 86.0473 205.227 85.3466C203.646 84.6458 202.396 83.6705 201.477 82.4205C200.559 81.1705 200.071 79.7263 200.014 78.0881H205.355C205.402 78.8741 205.663 79.5606 206.136 80.1477C206.61 80.7254 207.24 81.1752 208.026 81.4972C208.812 81.8191 209.692 81.9801 210.668 81.9801C211.709 81.9801 212.633 81.8002 213.438 81.4403C214.242 81.071 214.872 80.5597 215.327 79.9062C215.781 79.2528 216.004 78.5 215.994 77.6477C216.004 76.767 215.777 75.9905 215.312 75.3182C214.848 74.6458 214.176 74.1203 213.295 73.7415C212.424 73.3627 211.373 73.1733 210.142 73.1733H207.571V69.1108H210.142C211.155 69.1108 212.041 68.9356 212.798 68.5852C213.565 68.2348 214.167 67.7424 214.602 67.108C215.038 66.464 215.251 65.7206 215.241 64.8778C215.251 64.054 215.066 63.339 214.688 62.733C214.318 62.1174 213.793 61.6392 213.111 61.2983C212.438 60.9574 211.648 60.7869 210.739 60.7869C209.848 60.7869 209.025 60.9479 208.267 61.2699C207.509 61.5919 206.899 62.0511 206.435 62.6477C205.971 63.2348 205.724 63.9356 205.696 64.75H200.625C200.663 63.1212 201.132 61.6913 202.031 60.4602C202.94 59.2197 204.152 58.2538 205.668 57.5625C207.183 56.8617 208.883 56.5114 210.767 56.5114C212.708 56.5114 214.394 56.8759 215.824 57.6051C217.263 58.3248 218.376 59.2955 219.162 60.517C219.948 61.7386 220.341 63.0881 220.341 64.5653C220.35 66.2036 219.867 67.5767 218.892 68.6847C217.926 69.7926 216.657 70.517 215.085 70.858V71.0852C217.131 71.3693 218.698 72.1269 219.787 73.358C220.885 74.5795 221.43 76.0994 221.42 77.9176C221.42 79.5464 220.956 81.0047 220.028 82.2926C219.11 83.571 217.841 84.5748 216.222 85.304C214.612 86.0331 212.765 86.3977 210.682 86.3977ZM226.58 86V56.9091H237.489C239.724 56.9091 241.599 57.3258 243.114 58.1591C244.639 58.9924 245.79 60.1383 246.566 61.5966C247.352 63.0455 247.745 64.6932 247.745 66.5398C247.745 68.4053 247.352 70.0625 246.566 71.5114C245.78 72.9602 244.62 74.1013 243.086 74.9347C241.552 75.7585 239.663 76.1705 237.418 76.1705H230.188V71.8381H236.708C238.015 71.8381 239.085 71.6108 239.918 71.1562C240.752 70.7017 241.367 70.0767 241.765 69.2812C242.172 68.4858 242.376 67.572 242.376 66.5398C242.376 65.5076 242.172 64.5985 241.765 63.8125C241.367 63.0265 240.747 62.4157 239.904 61.9801C239.071 61.535 237.996 61.3125 236.68 61.3125H231.85V86H226.58ZM252.816 86H247.191L257.433 56.9091H263.938L274.194 86H268.569L260.799 62.875H260.572L252.816 86ZM253.001 74.5938H268.342V78.8267H253.001V74.5938ZM278.026 86V56.9091H296.733V61.3267H283.295V68.1449H288.906C291.132 68.1449 293.04 68.5095 294.631 69.2386C296.231 69.9583 297.457 70.9763 298.31 72.2926C299.162 73.6089 299.588 75.1572 299.588 76.9375C299.588 78.7273 299.162 80.304 298.31 81.6676C297.457 83.0218 296.231 84.0824 294.631 84.8494C293.04 85.6165 291.132 86 288.906 86H278.026ZM283.295 81.6818H288.906C290.08 81.6818 291.075 81.4593 291.889 81.0142C292.704 80.5691 293.319 79.982 293.736 79.2528C294.162 78.5237 294.375 77.733 294.375 76.8807C294.375 75.6496 293.902 74.6032 292.955 73.7415C292.017 72.8703 290.668 72.4347 288.906 72.4347H283.295V81.6818ZM330.192 71.4545C330.192 74.589 329.605 77.2737 328.43 79.5085C327.266 81.7339 325.675 83.4384 323.658 84.6222C321.65 85.8059 319.373 86.3977 316.825 86.3977C314.278 86.3977 311.996 85.8059 309.979 84.6222C307.971 83.429 306.38 81.7197 305.206 79.4943C304.041 77.2595 303.459 74.5795 303.459 71.4545C303.459 68.3201 304.041 65.6402 305.206 63.4148C306.38 61.1799 307.971 59.4706 309.979 58.2869C311.996 57.1032 314.278 56.5114 316.825 56.5114C319.373 56.5114 321.65 57.1032 323.658 58.2869C325.675 59.4706 327.266 61.1799 328.43 63.4148C329.605 65.6402 330.192 68.3201 330.192 71.4545ZM324.893 71.4545C324.893 69.2481 324.548 67.3873 323.857 65.8722C323.175 64.3475 322.228 63.197 321.016 62.4205C319.804 61.6345 318.407 61.2415 316.825 61.2415C315.244 61.2415 313.847 61.6345 312.635 62.4205C311.423 63.197 310.471 64.3475 309.78 65.8722C309.098 67.3873 308.757 69.2481 308.757 71.4545C308.757 73.661 309.098 75.5265 309.78 77.0511C310.471 78.5663 311.423 79.7169 312.635 80.5028C313.847 81.2794 315.244 81.6676 316.825 81.6676C318.407 81.6676 319.804 81.2794 321.016 80.5028C322.228 79.7169 323.175 78.5663 323.857 77.0511C324.548 75.5265 324.893 73.661 324.893 71.4545ZM332.607 61.3267V56.9091H355.817V61.3267H346.825V86H341.598V61.3267H332.607ZM377.72 86L368.146 73.2869H365.561V86H360.291V56.9091H365.561V68.8693H366.882L377.223 56.9091H383.714L372.223 70.1761L384.212 86H377.72ZM387.791 86V56.9091H406.712V61.3267H393.061V69.2244H405.732V73.642H393.061V81.5824H406.825V86H387.791Z" fill="black"/>
</svg>
